<?xml version="1.0" encoding="utf-8"?>
<!-- Svg Vector Icons : http://www.onlinewebfonts.com/icon -->
<!DOCTYPE svg PUBLIC "-//W3C//DTD SVG 1.1//EN" "http://www.w3.org/Graphics/SVG/1.1/DTD/svg11.dtd">
<svg version="1.1" xmlns="http://www.w3.org/2000/svg" xmlns:xlink="http://www.w3.org/1999/xlink" x="0px" y="0px" viewBox="0 0 1000 1000" enable-background="new 0 0 1000 1000" xml:space="preserve">
<metadata> Svg Vector Icons : http://www.onlinewebfonts.com/icon </metadata>
<g><path d="M499.8,934.3L499.8,934.3c-9.7,0-19.1-3.9-25.9-10.7L93.9,543.5C39.9,490.8,10,420,10,344.3C10,190.7,135,65.7,288.7,65.7c82,0,159,36.2,211.3,97.2c52.4-61,129.4-97.2,211.3-97.2C865,65.7,990,190.7,990,344.3c0,77.6-31.3,149.7-88.2,203L525.7,923.6C518.8,930.4,509.5,934.3,499.8,934.3z M288.7,139c-113.2,0-205.3,92.1-205.3,205.3c0,55.7,22.1,107.9,62.1,146.9l354.3,354.5l351.1-351.1c42.8-40.1,65.8-93.3,65.8-150.4c0-113.2-92.1-205.3-205.3-205.3c-74.3,0-143,40.4-179.3,105.5c-6.5,11.6-18.7,18.8-32,18.8l0,0c-13.3,0-25.5-7.2-32-18.8C431.7,179.5,363,139,288.7,139z"/></g>
</svg>